<?xml version="1.0" standalone="no"?>
<!DOCTYPE svg PUBLIC "-//W3C//DTD SVG 20010904//EN"
 "http://www.w3.org/TR/2001/REC-SVG-20010904/DTD/svg10.dtd">
<svg version="1.0" xmlns="http://www.w3.org/2000/svg"
 width="160.000000pt" height="189.000000pt" viewBox="0 0 160.000000 189.000000"
 preserveAspectRatio="xMidYMid meet">

<g transform="translate(0.000000,189.000000) scale(0.100000,-0.100000)"
fill="#000000" stroke="none">
<path d="M763 1833 c-41 -5 -41 -5 0 -168 36 -142 31 -135 103 -120 20 4 20 6
7 142 -6 76 -12 141 -13 146 0 7 -38 7 -97 0z"/>
<path d="M1291 1758 c-5 -13 -50 -126 -100 -253 -85 -212 -91 -231 -75 -242
24 -18 26 -17 50 20 43 66 256 439 252 442 -6 6 -107 55 -113 55 -3 0 -9 -10
-14 -22z"/>
<path d="M515 1743 c-27 -14 -52 -27 -54 -29 -3 -3 158 -275 236 -397 39 -61
45 -67 64 -56 15 8 19 17 15 34 -10 40 -197 475 -204 475 -4 -1 -29 -13 -57
-27z"/>
<path d="M997 1543 c-3 -5 -8 -60 -12 -124 l-7 -116 25 -5 c24 -5 26 -1 51 98
34 134 33 140 -5 148 -40 8 -47 8 -52 -1z"/>
<path d="M825 1499 c-73 -41 -53 -143 28 -143 49 0 77 27 77 74 0 56 -59 95
-105 69z"/>
<path d="M132 1387 c-23 -28 -53 -100 -45 -107 13 -12 472 -210 487 -210 8 0
17 8 21 17 8 22 -10 37 -142 119 -292 182 -311 193 -321 181z"/>
<path d="M1328 1362 c-18 -20 -54 -65 -80 -98 -45 -59 -46 -62 -29 -78 17 -15
21 -14 67 26 27 23 70 62 96 87 46 43 47 46 30 64 -35 39 -48 39 -84 -1z"/>
<path d="M485 1360 c-16 -16 -27 -32 -24 -34 2 -2 44 -38 93 -80 84 -72 90
-75 107 -60 10 9 16 22 12 28 -15 25 -146 176 -152 176 -4 0 -20 -13 -36 -30z"/>
<path d="M94 1131 c-90 -55 -52 -201 52 -201 70 0 113 41 114 109 0 36 -6 49
-34 77 -40 40 -83 45 -132 15z"/>
<path d="M305 1019 c-4 -22 -5 -42 -3 -45 7 -6 147 -23 199 -24 35 0 49 4 53
17 10 24 1 29 -99 56 -155 42 -142 43 -150 -4z"/>
<path d="M390 903 c-56 -21 -70 -96 -24 -132 32 -25 46 -26 84 -6 53 27 53
103 0 130 -31 16 -36 17 -60 8z"/>
<path d="M540 743 c-108 -39 -467 -177 -472 -182 -6 -5 34 -106 47 -119 4 -4
432 233 465 258 38 28 8 60 -40 43z"/>
<path d="M500 590 c-12 -12 -20 -33 -20 -55 0 -72 86 -104 129 -49 28 35 26
69 -4 99 -30 31 -77 33 -105 5z"/>
<path d="M707 538 c-79 -106 -286 -422 -281 -430 10 -16 106 -60 114 -51 8 8
188 385 221 460 15 36 16 42 2 47 -25 10 -31 7 -56 -26z"/>
<path d="M291 444 c-31 -22 -52 -75 -45 -113 9 -43 66 -91 107 -91 108 0 154
134 69 200 -31 25 -98 26 -131 4z"/>
<path d="M786 429 c-53 -42 -19 -129 50 -129 67 0 100 83 51 128 -29 28 -67
28 -101 1z"/>
</g>
</svg>
